<svg id="Layer_2" data-name="Layer 2" xmlns="http://www.w3.org/2000/svg" viewBox="0 0 283.46 283.46"><defs><style>.cls-1,.cls-2{fill:none;stroke:#231f20;}.cls-1{stroke-miterlimit:10;stroke-width:18px;}.cls-2{stroke-linecap:round;stroke-linejoin:round;stroke-width:11px;}</style></defs><title>logo</title><polyline class="cls-1" points="263.08 116.64 141.73 31.12 28.71 121.69"/><polyline class="cls-2" points="99.66 174.25 146.75 108.17 117.35 103.64"/><polyline class="cls-2" points="167.2 185.01 214.3 118.93 184.9 114.4"/><line class="cls-2" x1="134.06" y1="126.41" x2="201.11" y2="137.42"/><line class="cls-2" x1="222.68" y1="193.58" x2="201.11" y2="137.42"/><line class="cls-2" x1="167.2" y1="185.01" x2="222.68" y2="193.58"/><line class="cls-2" x1="137.36" y1="126.95" x2="167.2" y2="185.01"/><circle class="cls-2" cx="99.66" cy="174.25" r="38.47"/><circle class="cls-2" cx="222.68" cy="193.58" r="38.47"/><path class="cls-2" d="M66.73,164.09h0A24.41,24.41,0,0,1,91.14,188.5v49.4a0,0,0,0,1,0,0H42.32a0,0,0,0,1,0,0V188.5A24.41,24.41,0,0,1,66.73,164.09Z"/><line class="cls-2" x1="19.18" y1="237.91" x2="114.28" y2="237.91"/></svg>